<svg version="1.1" id="Layer_1" xmlns="http://www.w3.org/2000/svg" xmlns:xlink="http://www.w3.org/1999/xlink" x="0px" y="0px"
     width="100%" viewBox="0 0 619 621" enable-background="new 0 0 619 621" xml:space="preserve">
<path fill="#DD8454" opacity="1.000000" stroke="none"
      d="
M619.757446,280.706818
	C620.000000,301.354218 620.000000,321.708466 620.000000,342.531342
	C619.566711,343.510956 619.158203,344.041168 619.079102,344.733704
	C617.217346,361.043915 609.913147,375.516937 603.042175,389.977844
	C590.735901,415.877930 580.462402,442.556305 570.585999,469.427338
	C563.322693,489.188873 554.278625,508.049652 541.389709,524.870544
	C538.957214,528.045105 536.139587,530.882385 533.598145,533.963928
	C531.831299,536.106201 529.489136,537.357910 526.147827,536.413818
	C523.900330,535.970703 523.080200,534.463684 522.401978,532.962219
	C521.328491,530.585632 519.883911,528.714600 517.276367,527.899353
	C516.315430,527.598938 515.419250,526.907593 515.104858,525.956360
	C512.463867,517.966736 504.826202,513.705811 500.712799,506.652191
	C498.717590,503.230774 494.902618,500.363708 491.986725,497.168488
	C488.776428,493.650696 487.043457,489.116119 483.182861,486.029236
	C480.845947,484.160583 479.204102,481.377289 476.513458,479.548248
	C473.318848,477.376617 473.411743,473.109222 471.623169,469.963379
	C470.570526,468.111938 470.036194,465.965088 468.276978,464.080627
	C466.318542,459.461121 465.000641,455.271210 467.290314,450.563049
	C468.245789,448.598358 467.567230,445.992706 467.566772,443.677643
	C467.566162,440.291565 467.597595,436.891052 463.344025,435.743744
	C459.024567,434.578735 456.985504,435.559387 453.941467,440.511047
	C450.130585,442.721832 448.034973,441.200348 445.960205,438.113007
	C443.072876,433.816559 440.167572,429.436188 436.448761,425.811920
	C434.043823,423.468140 433.735138,420.229584 431.944061,417.637329
	C427.868256,411.738434 424.189880,405.572601 419.219818,400.320587
	C418.098389,399.135559 417.375824,397.555023 417.828522,395.393433
	C419.946320,391.837494 423.254425,392.602570 426.092377,392.689178
	C430.436920,392.821777 433.152435,391.217926 435.283020,387.338409
	C439.606781,379.465393 444.268402,371.773193 448.800293,364.012054
	C452.120575,358.325897 455.736664,358.239716 459.093842,363.986115
	C462.703705,370.165039 466.399902,376.296082 469.868134,382.556885
	C471.135040,384.843903 472.156403,387.452759 469.401917,389.210724
	C466.732544,390.914398 463.984558,390.403992 461.843079,387.833893
	C459.292694,384.772949 457.865784,380.947571 455.135345,377.758728
	C455.508179,387.432648 465.207642,394.904907 473.913239,392.469788
	C477.145630,391.565643 475.935974,389.667664 474.934204,387.860962
	C470.091248,379.126434 464.936554,370.571106 459.969757,361.907562
	C459.224518,360.607697 458.493256,359.301361 457.765778,357.991913
	C454.825073,352.698151 453.473114,352.571045 450.546661,357.699982
	C446.422119,364.928680 442.062592,372.021820 438.072784,379.326080
	C436.634644,381.958923 434.962677,384.448944 433.537140,387.086212
	C432.282928,389.406494 430.254822,390.229279 427.703430,390.120239
	C423.752289,389.951385 422.218140,387.857391 423.833344,384.202148
	C426.596283,377.949432 430.440460,372.273071 433.806580,366.340820
	C437.637756,359.589050 441.739349,352.978546 444.771606,345.776825
	C440.195496,351.458588 436.881805,357.920593 433.187958,364.134857
	C429.276764,370.714752 425.672577,377.474396 421.714661,384.029327
	C420.684937,385.734680 419.839630,387.625366 417.171204,387.990753
	C412.282959,387.182587 409.763794,384.452423 406.962524,380.693085
	C402.977112,375.344604 400.641083,369.067169 396.633667,364.061523
	C393.804962,360.528198 391.899536,356.215515 388.140717,353.256744
	C385.274170,351.000366 384.570404,346.962494 382.954681,343.747955
	C377.179901,332.259003 371.323242,320.802795 364.865112,309.704834
	C362.498444,305.637848 360.327576,301.219391 356.873901,297.812622
	C354.775116,295.742310 354.686249,293.482910 355.937500,290.628693
	C357.452759,288.669586 359.380707,288.653259 361.167694,288.684998
	C365.352600,288.759216 367.828735,286.703888 369.797363,283.135498
	C374.132416,275.277893 378.738190,267.567017 383.324341,259.851196
	C385.664612,255.913910 386.006042,252.389145 383.491089,248.244797
	C378.836395,240.574432 374.233887,232.854065 370.032074,224.921829
	C367.790863,220.690842 364.564270,219.204117 359.889557,219.350464
	C352.079834,219.594971 344.251282,219.585861 336.440155,219.356644
	C331.138580,219.201080 326.182220,219.569656 321.936707,223.786804
	C317.819946,223.299194 317.983490,220.348831 317.606628,217.598557
	C317.333527,215.605331 318.476593,212.712402 314.518799,212.345520
	C308.427734,206.725876 304.275726,200.259445 302.870667,191.955444
	C304.827148,190.152252 305.365204,188.330200 304.200989,186.317551
	C298.742889,176.882095 296.415131,166.341751 293.026886,156.139267
	C290.922272,149.801849 287.326019,143.858810 284.080292,137.911148
	C282.859711,135.674530 281.812805,133.535141 281.543304,130.983505
	C280.840240,124.326996 278.365662,118.255356 275.151215,112.459305
	C274.241394,110.818825 273.791077,109.090439 273.584961,107.245758
	C272.823486,100.431068 270.259674,94.222221 267.037415,88.256622
	C266.141815,86.598549 265.653137,84.853249 265.583588,83.012291
	C265.345886,76.722794 262.822388,71.153160 260.199158,65.612114
	C259.915222,65.012367 259.319519,64.413292 259.428802,63.803253
	C260.962189,55.243668 254.145020,48.702694 253.920441,40.466679
	C253.748260,34.151733 248.952225,28.995771 248.461899,22.534292
	C248.224609,19.407204 243.622009,20.529293 242.458282,17.373665
	C242.227753,14.290563 244.182434,13.430490 246.220169,12.496324
	C257.475952,7.336273 269.110870,3.412770 281.688599,1.246632
	C299.354218,1.000000 316.708466,1.000000 334.531342,1.000000
	C340.765106,3.108546 346.973450,3.051913 352.849274,4.929519
	C363.812042,8.432660 374.643097,12.334410 384.906799,17.413298
	C413.454926,31.540047 443.198425,42.695560 472.939301,53.899246
	C490.927948,60.675755 508.129028,68.935402 523.192444,81.116699
	C535.637146,91.180367 545.566589,103.331062 553.387756,117.283737
	C564.428955,136.980774 571.790527,158.213791 579.522339,179.294937
	C585.430054,195.402481 592.312561,211.106094 599.642944,226.592102
	C605.630554,239.241409 611.077698,252.087936 616.171082,265.110687
	C618.114807,270.080231 617.787964,275.451813 619.757446,280.706818
z"/>
    <path fill="#DC7F4D" opacity="1.000000" stroke="none"
          d="
M1.241992,346.293335
	C1.000000,323.312439 1.000000,300.624878 1.000000,277.468658
	C3.210247,268.559814 5.235395,260.083344 8.713556,252.011185
	C17.545183,231.514603 27.619328,211.578308 35.924194,190.839386
	C42.428398,174.597122 47.880577,157.964615 54.584610,141.800461
	C60.935028,126.488922 68.752380,112.030525 78.836967,98.846497
	C80.848587,96.216606 82.844681,93.483963 86.710419,92.568710
	C92.176109,93.806320 92.944084,98.529671 93.851486,102.256279
	C97.320541,116.503334 102.208504,130.288101 106.652382,144.219574
	C111.352425,158.954117 116.335861,173.598526 121.550995,188.152496
	C127.382439,204.426437 133.756134,220.497940 140.219223,236.544174
	C147.988876,255.834229 156.723267,274.672119 164.913803,293.758606
	C174.105942,315.179199 185.120529,335.669922 195.297729,356.586426
	C195.952789,357.932709 196.130997,359.480072 197.251465,361.018341
	C198.267700,364.859650 196.005508,367.400970 194.497330,370.058289
	C191.296082,375.698669 188.072937,381.329681 184.844604,386.955658
	C182.249390,391.478271 182.889923,392.196594 187.906036,392.657898
	C194.067734,393.224548 198.664230,391.542633 201.131088,385.470398
	C201.893723,383.593109 203.174576,382.012451 205.801697,381.670349
	C208.718063,381.774445 209.889084,383.587036 210.933578,385.532684
	C218.776352,400.142212 226.535553,414.799866 235.456985,428.796204
	C236.430130,430.322937 236.706406,431.826355 236.031555,433.887512
	C233.850677,436.347778 232.491928,438.708282 232.476730,441.758850
	C232.428619,451.411896 232.311188,461.066803 232.529282,470.716553
	C232.637253,475.494446 235.260452,477.876709 239.295135,477.376038
	C240.265884,477.255585 241.458633,477.202820 241.576630,475.944031
	C241.669724,474.950806 240.684143,474.553040 239.887527,474.435669
	C235.319748,473.762634 234.633316,470.522858 234.613556,466.738434
	C234.576187,459.582184 234.450180,452.425598 234.689545,445.271210
	C234.800568,441.953217 235.732773,439.282867 240.211456,439.517578
	C245.314392,444.086487 248.529861,449.582794 250.853745,455.543427
	C251.543655,457.313049 252.617111,458.182831 254.242371,459.359497
	C255.767197,462.466614 255.353455,465.468567 255.412506,468.403259
	C255.571594,476.309113 256.334747,477.170135 264.431732,477.796936
	C269.257507,480.259705 270.417084,485.134186 273.053680,488.875916
	C284.229980,504.736969 294.753418,521.034973 306.676056,536.401611
	C313.369110,545.028015 319.295898,554.299744 326.146332,562.851135
	C335.990173,575.139221 344.561371,588.435669 355.509705,599.850464
	C357.574402,602.003052 358.913422,604.722839 360.943573,606.961914
	C363.486176,609.766174 360.734436,612.593689 360.151154,615.757080
	C356.285309,619.177124 351.750702,619.781006 347.244385,620.400391
	C345.339905,620.662170 343.415649,620.752441 341.306915,621.754395
	C320.645782,622.000000 300.291534,622.000000 279.468658,622.000000
	C278.376251,621.403015 277.633301,621.065796 276.774658,620.986877
	C263.316864,619.750427 251.153915,614.245667 239.236877,608.622742
	C209.679352,594.676392 179.441620,582.499512 148.771667,571.254333
	C129.343231,564.130798 110.749992,555.201477 94.600349,541.820374
	C83.014565,532.220703 73.921707,520.690125 66.586861,507.650299
	C55.259594,487.512756 47.795956,465.756592 39.953804,444.162689
	C34.035610,427.866608 27.166443,411.971802 19.856665,396.267853
	C14.233855,384.188080 8.615656,372.117950 4.124297,359.554962
	C2.619378,355.345520 2.682359,350.843414 1.241992,346.293335
z"/>
    <path fill="#000000" opacity="1.000000" stroke="none"
          d="
M620.000000,280.531342
	C618.436340,281.749939 618.293274,280.673920 617.990479,279.552032
	C611.046265,253.817856 598.355469,230.454819 587.723450,206.240723
	C580.008118,188.669052 573.889526,170.478989 567.008911,152.583817
	C560.336121,135.229065 552.864990,118.142982 541.583374,103.287758
	C530.929504,89.259125 517.503723,78.217949 501.785858,69.791000
	C487.358154,62.055798 472.089508,56.663330 456.941345,50.717968
	C437.930756,43.256691 418.715027,36.243050 400.317657,27.167000
	C386.086243,20.146158 371.603607,13.479633 356.380066,8.698118
	C349.063812,6.400181 341.767517,4.038705 334.731079,1.353001
	C428.594086,1.000000 522.188232,1.028004 615.782166,0.896008
	C619.465942,0.890813 620.095886,1.750790 620.091431,5.275811
	C619.975952,96.871330 620.000000,188.467026 620.000000,280.531342
z"/>
    <path fill="#000000" opacity="1.000000" stroke="none"
          d="
M87.248001,93.825859
	C79.002151,100.573433 74.088608,109.439514 68.980064,118.099327
	C56.997044,138.412476 50.057087,160.850296 41.855843,182.774612
	C37.440987,194.576797 32.189350,206.081131 26.977888,217.566757
	C18.366779,236.544968 9.013353,255.206116 3.064293,275.278076
	C2.757810,276.312164 2.406735,277.089478 1.281365,277.339050
	C1.000000,186.404572 1.029230,95.809097 0.895090,5.213868
	C0.889619,1.519122 1.765515,0.905118 5.279721,0.909484
	C97.207268,1.023700 189.134995,1.000000 281.531342,1.000000
	C282.858551,3.096542 281.172577,2.704115 280.083405,3.045675
	C267.606232,6.958517 255.136978,10.897990 243.012360,16.598305
	C242.727585,19.464865 240.646973,19.965397 238.876617,20.874769
	C209.916504,35.750751 179.471512,47.046585 149.082031,58.535648
	C131.621078,65.136948 114.633743,72.903152 99.831566,84.671387
	C97.472710,86.546745 95.342072,88.639740 93.128174,90.658302
	C91.538277,92.107903 90.026588,93.747002 87.248001,93.825859
z"/>
    <path fill="#000000" opacity="1.000000" stroke="none"
          d="
M341.468658,622.000000
	C340.171844,620.484802 341.261017,620.359802 342.322113,620.031372
	C347.636169,618.386902 352.931274,616.681335 358.617126,614.914917
	C361.262207,610.555603 365.764709,609.696594 369.641724,607.949707
	C391.787872,597.971375 413.690186,587.420410 436.361542,578.658264
	C450.483978,573.200195 464.924866,568.566284 478.842377,562.568726
	C494.622131,555.768799 509.917511,548.101929 523.398071,536.655396
	C524.074341,535.888428 524.605347,535.509583 525.559326,535.273682
	C526.056213,535.292175 526.250793,535.346008 526.748047,535.400757
	C534.973511,531.501160 539.153198,523.987122 543.927185,517.255859
	C557.144897,498.618774 565.287292,477.473572 572.980164,456.166779
	C579.236450,438.838959 585.915466,421.697388 593.601440,404.936951
	C600.609680,389.654388 607.917053,374.489685 613.698059,358.670013
	C615.680603,353.244659 616.064026,347.257507 619.719666,342.660248
	C620.000000,434.594757 619.971191,526.189575 620.104431,617.784180
	C620.109802,621.473450 619.241821,622.095398 615.722229,622.091003
	C524.460693,621.976013 433.199005,622.000000 341.468658,622.000000
z"/>
    <path fill="#000000" opacity="1.000000" stroke="none"
          d="
M1.000000,346.468658
	C2.040124,345.074310 2.666159,346.131470 2.807513,346.691345
	C8.961312,371.063843 21.554432,392.782074 31.267927,415.680176
	C38.456635,432.626495 44.505924,449.989471 50.968105,467.204498
	C58.147388,486.329865 66.153198,505.127777 78.384293,521.653503
	C88.237083,534.965881 101.117226,544.955933 115.447533,553.222229
	C137.186707,565.762329 161.134323,572.927917 184.304047,581.988586
	C197.592575,587.185120 210.671097,592.832520 223.579742,598.923340
	C240.988327,607.137451 258.590332,614.939453 277.250885,619.980469
	C278.296844,620.263000 279.070038,620.592346 279.338348,621.709412
	C187.738815,622.000000 96.477592,621.971130 5.216612,622.104248
	C1.529484,622.109619 0.904311,621.244751 0.908819,617.723022
	C1.024346,527.461243 1.000000,437.199249 1.000000,346.468658
z"/>
    <path fill="#DD8150" opacity="1.000000" stroke="none"
          d="
M526.259277,536.658752
	C519.864197,543.768738 512.197205,548.414246 504.428925,552.843079
	C484.152649,564.402893 462.066986,571.717957 440.368530,579.953735
	C429.298279,584.155518 418.218719,588.412720 407.460571,593.337708
	C391.603729,600.596741 375.900513,608.186646 359.362549,614.781250
	C361.563751,608.440369 356.431274,604.796204 353.235138,601.213379
	C345.815643,592.896179 339.016571,584.095886 332.392792,575.206421
	C326.849609,567.767212 320.837372,560.693115 315.513824,553.089233
	C304.774384,537.749390 293.223297,523.006409 282.882324,507.352631
	C276.950714,498.373566 270.334442,489.842377 264.932220,480.081970
	C267.816528,473.966736 267.852783,467.624268 267.577148,461.216522
	C267.416016,457.471436 267.435211,453.591400 262.620178,452.709045
	C258.146515,451.889221 255.788025,454.247528 254.843597,458.428802
	C254.696579,459.079681 254.082840,459.491882 253.151031,459.914551
	C249.406570,459.286621 249.281860,455.949432 247.715317,453.737671
	C245.032120,449.949341 242.790833,445.950317 241.035553,441.280884
	C243.778839,436.236633 243.779770,436.231415 238.357941,435.263977
	C237.222443,435.061371 236.071869,434.924805 235.161133,433.586426
	C231.693848,426.654449 227.230621,420.728119 223.827789,414.120789
	C218.992401,404.731842 213.276184,395.798950 208.595383,386.303101
	C208.030945,385.158020 206.995941,384.244934 205.869080,383.028259
	C203.750992,380.941132 204.773346,379.036743 205.743164,377.330811
	C208.539764,372.411438 211.140564,367.370239 214.346603,362.694427
	C217.549271,358.023499 220.364563,357.964966 223.378021,362.876221
	C227.294891,369.259888 231.033539,375.759277 234.722931,382.281158
	C236.082062,384.683716 237.218399,387.248474 234.321533,389.388611
	C232.077682,391.046265 227.588547,390.147858 225.854691,387.617554
	C223.885925,384.744415 222.383957,381.562408 220.079803,378.875854
	C221.341553,383.073761 223.606384,386.774506 226.167938,390.264496
	C227.809738,392.501343 237.178497,393.597351 239.362167,392.064911
	C240.863510,391.011292 240.355530,389.759613 239.670944,388.553589
	C233.505554,377.692169 227.344666,366.828156 220.885605,356.136505
	C218.918869,352.880981 217.459793,353.875458 215.957214,356.544922
	C211.056488,365.251556 205.818375,373.764557 200.990479,382.513062
	C199.939697,384.417114 198.840759,386.292908 197.438644,387.939911
	C195.308365,390.442230 192.435516,390.915863 189.778397,389.336029
	C186.695145,387.502808 187.888382,384.740784 189.262161,382.319244
	C195.671280,371.021942 202.239319,359.815704 208.678925,348.535706
	C209.090363,347.815063 209.590836,347.139099 209.193283,345.955994
	C206.583099,348.844757 204.896484,352.387207 202.825989,355.674011
	C201.199600,358.255798 200.472885,361.688232 196.515045,362.509796
	C186.717270,346.554230 178.934372,329.813141 171.093109,313.112946
	C164.114227,298.249451 157.282990,283.311584 150.691925,268.272675
	C145.364700,256.117523 140.649780,243.694916 135.376907,231.514877
	C129.164841,217.165314 124.071121,202.399963 118.782730,187.713120
	C113.606140,173.336807 108.826851,158.812927 104.105911,144.278244
	C99.084999,128.820023 94.356735,113.266884 89.433037,97.776695
	C89.045288,96.556824 88.127853,95.505310 87.175301,94.163269
	C94.943260,84.109711 105.101479,76.938995 116.160553,70.935593
	C135.463058,60.457256 156.063354,53.129944 176.617233,45.579468
	C196.102112,38.421692 215.118866,30.031666 233.680939,20.672758
	C236.412292,19.295620 239.290192,18.209131 242.472717,16.960720
	C242.999146,16.996252 243.166458,17.135500 243.305267,17.111275
	C251.105392,15.749959 250.352539,21.128416 252.402100,26.366142
	C256.311493,36.356743 255.787781,47.854221 262.773193,56.707581
	C263.236023,57.294174 263.726593,58.484245 263.451874,58.932354
	C260.036682,64.503227 264.588043,68.186111 266.618286,72.399483
	C267.208557,73.624489 267.824615,74.670296 267.701172,76.090042
	C267.291687,80.798462 268.777740,84.807442 270.652618,89.238075
	C272.502777,93.610275 275.913544,97.602341 275.603180,103.213646
	C275.244385,109.700661 279.709686,115.027954 282.166321,120.824440
	C282.544647,121.717018 283.581726,122.562920 283.523132,123.373207
	C282.674194,135.114883 290.790924,143.324219 294.940094,153.104095
	C297.118927,158.239868 298.501862,163.782104 299.656433,169.264557
	C300.836395,174.867508 303.751251,179.557495 306.537964,184.312119
	C308.749939,188.086182 308.462036,190.229340 304.268982,192.008087
	C300.676300,192.907288 299.777740,190.186310 298.735260,188.351807
	C291.574249,175.750259 293.219391,177.571243 278.183044,177.427917
	C271.521027,177.364410 264.855804,177.508316 258.195801,177.388062
	C254.335281,177.318375 251.620178,178.578751 249.553329,182.032196
	C244.251038,190.891724 239.260239,199.925415 234.099899,208.863525
	C232.494583,211.644073 232.803528,214.240479 234.316055,216.892975
	C239.263855,225.569977 244.373215,234.154099 249.277145,242.855637
	C251.206772,246.279526 254.005814,247.654160 257.905975,247.610748
	C267.065674,247.508743 276.236664,247.340515 285.385742,247.670578
	C290.647308,247.860397 293.728790,245.603119 296.125092,241.244339
	C300.856384,232.638336 305.888550,224.199371 310.837677,215.715286
	C311.757080,214.139160 312.522339,212.434235 314.589478,211.347092
	C318.013611,207.778229 319.425720,209.433884 319.907715,212.961365
	C320.331696,216.064682 319.558777,219.285187 320.889160,222.724136
	C323.184357,224.945480 321.812500,226.801071 320.932068,228.491943
	C317.317963,235.432678 313.398987,242.212387 309.078857,248.730453
	C306.761993,252.226074 306.647339,255.380035 308.738007,258.943939
	C313.706390,267.413513 318.706909,275.866028 323.507111,284.432831
	C325.155457,287.374603 327.619141,288.564209 330.907623,288.575958
	C337.568634,288.599731 344.231384,288.479584 350.889923,288.658325
	C352.979218,288.714417 355.323792,288.304779 356.887421,290.877625
	C357.149750,292.383636 356.875397,293.971466 357.526947,294.601105
	C365.218231,302.033661 368.161255,312.531189 374.554901,320.855469
	C376.940338,323.961182 377.953033,328.443909 379.949524,332.176239
	C383.097473,338.061035 385.476135,344.633240 389.218170,349.851013
	C391.825958,353.487244 393.417267,358.689545 398.438080,360.833374
	C401.130066,361.982849 400.643250,365.760834 401.780609,368.205627
	C404.079346,373.147003 408.772247,376.344971 410.427917,381.503235
	C411.443512,384.667450 415.125183,384.473633 416.956238,387.113251
	C418.732452,389.431244 417.251892,392.247559 418.980652,394.556763
	C419.587189,396.069824 419.911987,397.506836 420.792969,398.387299
	C427.599640,405.190308 432.177277,413.390259 437.054596,421.591400
	C439.243103,425.271362 441.243500,430.508728 446.195709,432.535583
	C447.780579,433.184174 447.863586,434.890594 448.151581,436.357941
	C448.590332,438.593323 449.840240,439.918579 452.600464,439.982910
	C453.209534,440.121552 453.439514,440.241943 453.919495,440.661285
	C454.863983,443.188446 456.845795,444.346069 458.489960,445.594513
	C461.061615,447.547180 461.932953,449.875580 461.350342,453.280640
	C460.433197,455.429932 460.303162,456.632904 462.307587,458.189545
	C468.018280,462.624542 466.242432,471.880066 459.413025,474.435364
	C458.632690,474.727325 457.638397,474.896027 457.585327,475.830200
	C457.510040,477.155426 458.705811,477.246185 459.666016,477.439056
	C464.497620,478.409424 467.149353,476.250977 467.575958,471.215820
	C467.805542,468.506287 466.816193,465.499481 469.578308,463.118530
	C473.000000,465.017029 474.013824,468.863220 475.014709,471.637543
	C477.446869,478.379486 484.007782,481.073212 487.292694,486.526855
	C489.934113,490.912170 494.764709,493.576385 496.262848,498.719360
	C496.488159,499.492767 496.820343,500.633545 497.388947,500.848663
	C505.875458,504.058563 506.892212,514.460693 514.485168,518.516479
	C515.730408,519.181641 515.752563,520.742554 516.124878,522.019470
	C516.439392,523.098083 516.923157,524.858521 517.590088,524.988037
	C523.100891,526.057922 524.002136,531.111877 526.762634,535.099976
	C527.050842,535.401611 527.088440,535.347778 527.114746,535.367310
	C526.911865,535.649109 526.682617,535.911377 526.259277,536.658752
z"/>
    <path fill="#F8F7F6" opacity="1.000000" stroke="none"
          d="
M314.659851,210.953369
	C315.476013,213.010345 314.400238,214.374451 313.571381,215.797867
	C307.471710,226.272659 301.293457,236.702774 295.317230,247.247421
	C294.144135,249.317307 292.790985,249.932449 290.566742,249.918594
	C278.247894,249.841827 265.927948,249.833237 253.609344,249.925751
	C251.547470,249.941223 250.249054,249.336990 249.217697,247.549545
	C242.808243,236.441040 236.403000,225.328278 229.793457,214.338959
	C228.801697,212.690033 229.626526,211.825394 230.201920,210.819138
	C236.487213,199.827011 242.877182,188.894653 249.146667,177.893616
	C250.284790,175.896622 251.732712,175.261002 253.968582,175.277481
	C266.120789,175.367096 278.274902,175.401657 290.426117,175.259735
	C293.196198,175.227386 294.642700,176.366959 295.873810,178.635696
	C298.253265,183.020615 300.851044,187.287094 303.616882,191.819458
	C307.381775,198.267410 310.888031,204.498581 314.659851,210.953369
z"/>
    <path fill="#F8F7F7" opacity="1.000000" stroke="none"
          d="
M368.921875,206.274017
	C367.435577,208.542969 365.439575,207.904663 363.697296,207.911774
	C352.212646,207.958649 340.726044,207.828384 329.243958,208.005508
	C326.173737,208.052872 324.463654,207.039566 322.974915,204.372726
	C317.299652,194.206146 311.463318,184.126633 305.507507,174.121506
	C304.045807,171.666016 303.995239,169.822128 305.482056,167.326965
	C311.527710,157.181503 317.394440,146.927536 323.188904,136.635773
	C324.498291,134.310181 326.074799,133.405899 328.744843,133.432999
	C340.561371,133.552933 352.380249,133.539780 364.197174,133.440887
	C366.790039,133.419174 368.487183,134.110992 369.834412,136.505722
	C375.706848,146.944122 381.691254,157.321823 387.808716,167.618378
	C389.212524,169.981247 388.990356,171.750473 387.666962,173.991180
	C381.406982,184.590576 375.290436,195.274658 368.921875,206.274017
z"/>
    <path fill="#F8F7F7" opacity="1.000000" stroke="none"
          d="
M357.445862,291.169342
	C347.358765,291.181335 337.722473,291.022156 328.089172,291.130341
	C325.602081,291.158264 324.135590,290.320404 322.954803,288.267731
	C316.646210,277.300751 310.398621,266.294739 303.830658,255.484055
	C302.466278,253.238327 304.122131,252.359161 304.771973,251.224991
	C310.045532,242.021027 315.504639,232.923355 320.975891,223.453552
	C323.405060,217.641739 327.564453,216.370163 333.328674,216.658203
	C343.449036,217.163925 353.615814,216.936096 363.756866,216.719513
	C367.064697,216.648880 368.813629,217.823502 370.384827,220.657562
	C375.945435,230.687500 381.704071,240.611069 387.577606,250.461685
	C389.046997,252.925980 389.105408,254.805191 387.628876,257.278625
	C382.091064,266.555420 376.516876,275.827240 371.466553,285.370880
	C369.133728,289.779205 366.386383,291.991241 361.383881,291.083862
	C360.259674,290.879913 359.061737,291.082367 357.445862,291.169342
z"/>
    <path fill="#F6EEEA" opacity="1.000000" stroke="none"
          d="
M419.461304,394.793091
	C413.334076,394.327362 413.334076,394.327362 417.005310,387.699097
	C425.299805,373.367523 433.446503,359.318573 441.567841,345.254974
	C442.481537,343.672760 443.149963,341.802155 445.227448,341.512634
	C446.657715,341.313293 448.488525,340.810883 449.472076,342.045074
	C450.427643,343.244141 449.025757,344.481598 448.399750,345.565796
	C440.369537,359.473389 432.301910,373.359344 424.064545,387.559845
	C428.147583,389.192444 430.439972,388.431549 432.561859,384.545044
	C438.756287,373.198883 445.525177,362.167908 451.862701,350.897430
	C453.808136,347.437744 454.584930,348.267731 456.194946,351.100494
	C463.831696,364.537018 471.572540,377.915955 479.444550,391.215820
	C481.079132,393.977539 480.466187,394.716217 477.578125,394.603943
	C477.245758,394.591003 476.912109,394.600922 476.579285,394.608887
	C459.911804,395.007751 459.069794,394.344910 451.805847,378.993164
	C450.246155,375.696930 452.558716,374.137268 453.543335,371.502563
	C457.221954,374.704254 458.492584,379.155609 460.961365,382.791779
	C461.987335,384.302917 462.797211,385.986145 463.970917,387.365112
	C465.360626,388.997803 467.562775,388.820374 469.026337,387.967285
	C470.964996,386.837250 469.042603,385.251434 468.452362,384.202332
	C464.541321,377.251038 460.403381,370.427979 456.422150,363.515411
	C454.754181,360.619324 453.558411,359.721710 451.531921,363.417145
	C446.748810,372.139435 441.475433,380.594696 436.761841,389.352509
	C434.725983,393.135101 432.457733,395.305817 427.897491,394.673035
	C425.288879,394.311005 422.581024,394.664307 419.461304,394.793091
z"/>
    <path fill="#F5ECE7" opacity="1.000000" stroke="none"
          d="
M501.990967,388.359314
	C504.925140,389.284332 509.696869,386.041931 509.495819,391.710541
	C509.314606,396.819214 504.939880,394.450775 502.516876,394.513794
	C491.746552,394.793793 491.742279,394.639313 491.741943,383.956604
	C491.741577,371.475128 491.849792,358.992126 491.674591,346.513123
	C491.623199,342.852234 492.339447,341.241364 496.531982,341.261841
	C509.640411,341.325989 509.641052,341.142822 509.636139,354.304840
	C509.633087,362.459412 509.649597,370.614044 509.614838,378.768463
	C509.606628,380.697723 510.048248,382.837280 506.847687,382.933594
	C503.685089,383.028717 503.349762,381.275452 503.358978,378.837067
	C503.392975,369.850586 503.378967,360.863770 503.344910,351.877258
	C503.337463,349.905426 503.616333,347.668518 500.506683,347.723206
	C497.281494,347.779938 497.939362,350.185730 497.930725,352.037231
	C497.881012,362.687836 497.947266,373.339081 497.875885,383.989471
	C497.858185,386.627869 498.140076,388.712311 501.990967,388.359314
z"/>
    <path fill="#F5ECE7" opacity="1.000000" stroke="none"
          d="
M469.798706,462.645264
	C469.814941,466.469635 469.620239,469.944580 469.661072,473.416748
	C469.712982,477.832581 467.591461,479.792938 463.261139,479.648956
	C461.109314,479.577393 458.945923,479.525909 456.800659,479.664795
	C454.055969,479.842499 453.011780,478.824249 453.018768,475.966309
	C453.025696,473.134552 454.397095,472.811920 456.692444,472.673859
	C458.838440,472.544800 461.933990,473.991974 462.910004,471.226715
	C463.996582,468.148315 463.617371,464.659149 463.055359,461.388702
	C462.741882,459.564423 460.971161,460.136383 459.748322,460.085419
	C457.868713,460.007080 456.018005,460.181641 456.083527,457.384064
	C456.136047,455.141357 455.896118,452.869751 459.599915,452.972809
	C462.376312,448.769897 461.307068,445.050629 457.115906,443.479156
	C455.689606,442.944397 454.281128,442.572052 453.271118,440.905151
	C453.148407,440.582214 453.151764,440.266174 453.065643,440.133667
	C452.106750,434.608612 454.702911,433.451782 459.660156,433.639648
	C469.301819,434.004974 469.734589,434.055145 469.574585,443.816833
	C469.506134,447.991730 470.582550,452.285095 467.537628,456.271820
	C466.598877,457.500977 469.915375,459.850830 469.798706,462.645264
z"/>
    <path fill="#F6F0ED" opacity="1.000000" stroke="none"
          d="
M163.033264,369.227478
	C167.344513,374.161743 168.610413,379.474548 166.213760,385.226135
	C163.750961,391.136475 159.118942,394.365265 152.617523,394.417938
	C139.294632,394.525970 125.970695,394.500183 112.647575,394.588165
	C110.299332,394.603638 109.265572,393.612946 109.423828,391.302429
	C109.446518,390.971252 109.423462,390.636322 109.411819,390.303467
	C108.939346,376.793579 108.939194,376.792999 122.343498,376.792358
	C131.671570,376.791901 140.999771,376.767151 150.327606,376.814240
	C152.414215,376.824829 155.158905,376.382996 155.017181,379.694519
	C154.895218,382.544220 152.521774,382.858398 150.245911,382.862213
	C140.251587,382.878998 130.256973,382.838440 120.263077,382.906006
	C118.297829,382.919312 115.604752,382.046326 115.669151,385.682312
	C115.724930,388.831665 118.031158,388.375183 119.939796,388.382202
	C130.267136,388.420258 140.594757,388.417023 150.922150,388.384186
	C154.527191,388.372711 157.925323,387.719635 160.001846,384.307892
	C163.658920,378.299225 159.492905,371.186859 152.116318,371.068390
	C143.456741,370.929352 134.793274,371.035339 126.131493,371.027130
	C124.142784,371.025238 122.156792,371.384064 122.072388,368.191193
	C121.982918,364.806427 123.967560,364.948669 126.251915,364.956970
	C134.746994,364.987793 143.242737,365.018494 151.737335,364.944977
	C157.489777,364.895172 161.318039,361.382294 161.288696,356.395172
	C161.257187,351.039917 157.946686,347.733826 151.940659,347.650909
	C141.115524,347.501495 130.286865,347.600220 119.459709,347.612549
	C117.595085,347.614685 115.730232,347.549683 115.656372,350.298706
	C115.570564,353.492035 117.776840,353.109467 119.745331,353.113068
	C128.906799,353.129974 138.068314,353.120056 147.229813,353.120697
	C148.395813,353.120789 149.561813,353.123962 150.727798,353.130585
	C152.861267,353.142670 155.015701,353.498657 155.131165,356.090576
	C155.251602,358.794067 153.036514,359.087128 150.941742,359.196198
	C150.609329,359.213470 150.275589,359.208679 149.942474,359.208649
	C137.782669,359.208069 125.622055,359.131012 113.463623,359.259521
	C110.466331,359.291229 109.208572,358.365173 109.374916,355.285858
	C109.554352,351.964142 109.557785,348.617157 109.372322,345.296021
	C109.194328,342.108643 110.701096,341.349091 113.575836,341.370789
	C126.068062,341.465210 138.561615,341.452301 151.054291,341.392456
	C157.606049,341.361053 162.913696,343.735718 165.812180,349.711365
	C168.679611,355.622894 167.770813,361.358185 163.368546,366.396667
	C162.717911,367.141327 161.905121,367.862091 163.033264,369.227478
z"/>
    <path fill="#F7F2EF" opacity="1.000000" stroke="none"
          d="
M196.019775,362.733429
	C199.179779,357.295258 202.182053,352.144531 205.208267,347.007874
	C205.965561,345.722412 206.855759,344.513733 207.586761,343.214539
	C208.986496,340.726868 211.646774,340.847778 213.281174,341.718933
	C215.645920,342.979370 213.321945,344.938721 212.600296,346.211121
	C205.728271,358.327759 198.679398,370.343964 191.710968,382.406128
	C190.734451,384.096436 189.917892,385.879120 189.006226,387.660248
	C194.735565,390.165131 196.371033,386.141479 198.351318,382.692871
	C204.954239,371.194153 211.565231,359.700073 218.625641,347.416931
	C223.625046,355.952087 228.290955,363.904327 232.943054,371.864624
	C236.382202,377.749420 239.790985,383.651947 243.236572,389.532959
	C245.866196,394.021271 245.515594,393.779785 240.715378,394.704010
	C228.389893,397.077301 221.578598,391.330902 217.383911,380.565857
	C216.530182,378.374847 215.091919,376.659058 216.651459,374.145630
	C218.058563,371.877869 218.920868,370.904999 220.549088,373.958801
	C222.659943,377.917816 225.078857,381.711456 227.290726,385.618408
	C228.138657,387.116150 228.894958,388.598175 230.963104,388.387756
	C232.104645,388.271545 233.624710,388.493958 234.289780,387.853271
	C235.339935,386.841644 233.901459,385.791473 233.380173,384.875702
	C228.703003,376.659119 223.961121,368.479370 218.664078,359.292999
	C214.089401,367.371887 209.911621,374.749878 205.646469,382.480042
	C205.096359,383.294556 204.502396,383.682709 204.192322,384.231354
	C202.253342,387.662262 201.144135,392.977356 197.840805,393.875854
	C192.408463,395.353394 186.319641,394.677612 180.524658,394.458649
	C177.328506,394.337860 179.121490,392.402954 179.887909,391.059052
	C185.216583,381.715302 190.543457,372.370544 196.019775,362.733429
z"/>
    <path fill="#F7F2EF" opacity="1.000000" stroke="none"
          d="
M209.309540,477.842102
	C207.567215,481.608887 204.504211,479.709076 202.199249,479.624512
	C199.787491,479.536072 200.222748,476.955414 200.002090,475.235229
	C199.114883,468.319122 198.283829,461.395782 197.448318,454.473114
	C197.266251,452.964600 196.171936,451.067200 199.054733,450.828796
	C201.206177,450.650848 202.576248,451.234650 202.819458,453.633820
	C203.254456,457.924652 203.794479,462.204803 204.380493,467.265747
	C206.404510,462.407745 206.099106,457.899292 206.826141,453.601593
	C207.178909,451.516235 207.836624,450.769592 209.921555,450.776489
	C212.038239,450.783478 212.886597,451.673004 213.069305,453.687714
	C213.354141,456.828644 213.790024,459.955933 214.264160,463.518707
	C214.602859,464.305481 214.933945,464.460297 215.562057,464.189331
	C216.223602,460.502167 216.754623,457.046478 217.116943,453.573181
	C217.369598,451.151062 218.712936,450.587280 220.872955,450.816254
	C223.366196,451.080597 222.606033,452.903625 222.461624,454.209045
	C221.638428,461.650574 220.761032,469.087372 219.780243,476.509705
	C219.264709,480.411072 216.865921,481.007111 210.855392,478.484192
	C210.473114,477.464874 210.005051,477.430847 209.309540,477.842102
z"/>
    <path fill="#F5EAE4" opacity="1.000000" stroke="none"
          d="
M234.705078,433.447266
	C237.148148,433.299805 239.286728,433.264832 241.417831,433.374939
	C243.700455,433.492950 246.472061,432.497559 246.704269,436.574493
	C246.931137,440.557739 244.659210,440.809906 241.396545,440.819702
	C237.734482,440.082092 236.461670,441.405029 236.475433,444.708221
	C236.508682,452.689178 236.378845,460.671112 236.281540,468.652222
	C236.224930,473.295685 239.697250,472.461090 242.300446,472.282013
	C246.529907,471.991028 247.034180,474.271606 246.545364,477.536713
	C246.475128,478.005981 246.306519,478.737061 245.998367,478.852325
	C241.983063,480.354492 237.828430,479.847015 233.776917,479.225952
	C230.625656,478.742889 230.380051,475.951904 230.374298,473.369812
	C230.348648,461.888123 230.382446,450.406281 230.346558,438.924622
	C230.337585,436.052399 231.330002,434.079529 234.705078,433.447266
z"/>
    <path fill="#F5EAE4" opacity="1.000000" stroke="none"
          d="
M158.047363,479.642761
	C150.366028,479.624298 150.364334,479.624298 150.362091,472.338379
	C150.358521,460.709625 150.392563,449.080688 150.325577,437.452332
	C150.312225,435.133148 150.110123,433.254395 153.467941,433.290497
	C156.540466,433.323547 156.959961,434.784271 156.940613,437.321808
	C156.860733,447.787018 156.987457,458.254120 156.868866,468.718567
	C156.835114,471.697510 157.824677,472.760406 160.867935,472.848175
	C163.142517,472.913818 166.944977,470.891327 166.940445,476.034607
	C166.935776,481.351776 163.013245,479.128052 160.500458,479.624207
	C159.860901,479.750488 159.175201,479.643005 158.047363,479.642761
z"/>
    <path fill="#F6EFEB" opacity="1.000000" stroke="none"
          d="
M252.866684,460.467987
	C253.250183,451.304993 253.748978,450.625397 259.846832,450.414856
	C268.490509,450.116425 269.573029,451.154175 269.596405,459.833313
	C269.608887,464.462311 269.611053,469.091522 269.574890,473.720306
	C269.551971,476.655426 268.520569,478.886719 264.970886,479.623810
	C253.134766,479.208435 252.738510,481.154663 252.954361,466.894623
	C252.984436,464.907776 252.936340,462.919708 252.866684,460.467987
z"/>
    <path fill="#F6EFEB" opacity="1.000000" stroke="none"
          d="
M189.881439,471.680084
	C189.406982,479.148254 188.470245,479.827148 179.590347,479.597992
	C174.263489,479.460480 173.152145,478.168335 173.124405,471.959717
	C173.101349,466.795685 173.028595,461.629120 173.152710,456.467926
	C173.270737,451.559784 174.794266,450.505676 181.299057,450.402618
	C187.357574,450.306580 189.648300,451.743317 189.826431,456.229095
	C190.024582,461.218933 189.878494,466.222473 189.881439,471.680084
z"/>
    <path fill="#E4A07B" opacity="1.000000" stroke="none"
          d="
M209.424347,478.075165
	C209.167938,476.618408 209.167938,475.170654 209.167938,473.466217
	C211.232025,474.482147 210.720825,476.073914 210.790558,477.761475
	C210.364334,478.097992 210.022537,478.091095 209.424347,478.075165
z"/>
    <path fill="#DF8D60" opacity="1.000000" stroke="none"
          d="
M215.531738,463.950348
	C215.764572,464.933044 215.764572,465.900696 215.764572,468.148773
	C214.945999,466.164185 214.605713,465.339203 214.315933,464.231323
	C214.676895,463.918976 214.987717,463.914612 215.531738,463.950348
z"/>
    <path fill="#DD8454" opacity="1.000000" stroke="none"
          d="
M526.358032,537.002563
	C526.207458,536.827820 526.349731,536.511719 526.816528,535.791260
	C527.729431,536.128174 526.897156,536.397278 526.358032,537.002563
z"/>
    <path fill="#F7F4F2" opacity="1.000000" stroke="none"
          d="
M267.278259,357.663086
	C275.541290,367.267853 283.722382,376.475861 291.577576,385.953918
	C294.581482,389.578461 298.142670,388.320465 301.637848,388.135132
	C303.191559,388.052734 302.954712,386.438934 302.957062,385.328674
	C302.981201,373.831512 302.932953,362.334015 303.005646,350.837250
	C303.020447,348.500061 302.218109,347.570251 299.825623,347.582245
	C297.133026,347.595703 297.002197,349.179626 297.009888,351.184967
	C297.042511,359.682770 297.049377,368.181000 296.992584,376.678589
	C296.981903,378.269379 297.442627,379.949677 296.143768,382.195068
	C290.542969,375.770203 285.154175,369.593567 279.771179,363.411774
	C275.837555,358.894409 271.885468,354.392578 267.998383,349.835419
	C266.863281,348.504639 265.663971,347.695740 263.812927,347.543030
	C257.467529,347.019501 257.022705,347.346893 257.019226,353.695587
	C257.013702,363.859802 256.998901,374.024109 257.034637,384.188202
	C257.041229,386.064728 256.397461,388.353638 259.673187,388.406281
	C263.052765,388.460632 262.817688,386.234741 262.812378,384.017273
	C262.803223,380.212494 262.809845,376.407684 262.809845,371.830048
	C266.825745,374.578430 268.941223,377.261536 268.925323,381.761688
	C268.879547,394.702423 269.004578,394.514496 256.079315,394.666016
	C251.790787,394.716248 250.825424,393.317200 250.892731,389.269135
	C251.128143,375.109802 251.194580,360.939148 250.861694,346.783691
	C250.752960,342.159760 252.407761,341.628113 256.508087,341.260956
	C265.057220,340.495453 271.383667,342.656921 276.141846,350.342712
	C279.326416,355.486694 284.023041,359.697968 288.078522,364.295319
	C288.597229,364.883270 289.371521,365.731964 289.955902,365.678467
	C291.338104,365.551941 290.948029,364.199615 290.954620,363.297333
	C290.996063,357.632324 291.169617,351.958221 290.912384,346.304749
	C290.751648,342.772736 291.556274,341.343536 295.497498,341.330994
	C308.861511,341.288452 308.861328,341.126404 308.860321,354.480377
	C308.859406,366.310883 308.751038,378.142914 308.922302,389.970917
	C308.972565,393.441040 307.818207,394.527893 304.369659,394.614960
	C290.521118,394.964569 290.268707,395.269104 280.541382,382.856537
	C275.822571,376.835052 270.898315,371.005951 265.805878,365.343140
	C262.737671,361.931274 262.402313,358.507599 263.167206,354.366913
	C265.287292,354.558167 265.786469,356.468994 267.278259,357.663086
z"/>
    <path fill="#F5EDE8" opacity="1.000000" stroke="none"
          d="
M357.239502,374.581604
	C357.235229,380.193451 357.105804,385.363098 357.279327,390.522552
	C357.379028,393.486725 356.413544,394.558868 353.333527,394.690491
	C339.364075,395.287354 338.574860,395.317261 339.631836,381.481781
	C340.403656,371.378693 335.017731,364.746216 330.149323,357.435638
	C327.251068,353.083557 324.376160,348.704865 321.238098,344.527985
	C319.480377,342.188477 319.757019,341.359619 322.648407,341.368195
	C327.980316,341.384033 333.319061,341.223206 338.641876,341.446899
	C342.289398,341.600220 345.335480,346.845184 343.722595,349.670135
	C342.365692,352.046722 340.835297,353.110657 339.204010,350.035645
	C338.406525,348.532349 337.477448,347.594330 335.780426,347.695557
	C334.643738,347.763336 333.128265,347.645020 332.478699,348.300293
	C331.452789,349.335297 332.850433,350.353668 333.421265,351.289673
	C334.373230,352.850708 335.186737,354.562866 336.415894,355.877258
	C343.886902,363.866425 347.232361,373.124512 345.693726,384.084808
	C345.427124,385.984100 345.322876,388.247955 348.438446,388.299225
	C351.532471,388.350098 351.592316,386.174072 351.310181,384.206757
	C349.642365,372.577637 353.292358,362.807739 361.313721,354.460144
	C361.874146,353.876923 362.213318,353.069977 362.608887,352.341827
	C363.371063,350.938843 365.760620,349.250977 363.690582,348.021576
	C362.007263,347.021790 359.181885,346.859161 357.526062,349.444458
	C355.382416,352.791382 353.171967,356.109924 350.751190,359.256744
	C349.952789,360.294617 349.346283,362.951019 347.087494,361.132996
	C345.554413,359.899017 344.970642,358.016754 346.110107,356.235321
	C348.966248,351.769897 351.961121,347.392334 354.944183,343.009369
	C355.873810,341.643524 357.305847,341.344513 358.899109,341.358795
	C363.564148,341.400696 368.230316,341.333496 372.895081,341.388641
	C373.991486,341.401581 375.455994,340.862152 376.077026,342.131561
	C376.649750,343.302277 375.607635,344.242401 374.943329,345.195892
	C369.726898,352.683167 364.620361,360.248627 359.299530,367.660492
	C357.843170,369.689209 357.126526,371.721161 357.239502,374.581604
z"/>
    <path fill="#F7F2EF" opacity="1.000000" stroke="none"
          d="
M383.540558,479.820557
	C376.497833,479.855896 376.680054,479.838898 376.050354,473.089294
	C375.458313,466.743256 374.561981,460.415375 373.502350,454.129639
	C373.192505,452.291626 373.087616,451.137329 375.176025,451.048798
	C376.852997,450.977692 378.874847,450.287231 379.075867,453.336243
	C379.340576,457.351105 380.046722,461.336853 381.177460,465.354675
	C382.149811,461.802551 382.203247,458.177917 383.110962,454.702087
	C383.617798,452.761444 383.459198,450.822723 386.475555,450.904510
	C389.479187,450.985931 389.583252,453.166595 389.742249,454.950867
	C390.076080,458.696411 390.457794,462.401581 391.690674,466.033691
	C391.275543,461.815948 393.763489,458.040436 393.356354,453.867249
	C393.086761,451.103912 394.861786,451.033478 396.840973,450.981781
	C399.165100,450.921143 399.157837,452.503296 398.976105,454.009796
	C398.023254,461.908203 397.010254,469.799561 395.974091,477.687592
	C395.563080,480.816650 393.025513,479.723022 391.253052,479.814911
	C389.555695,479.902954 387.355103,480.424744 387.156067,477.565094
	C387.076782,476.426056 386.961060,475.289520 386.834534,473.837524
	C384.973999,475.701111 387.019287,478.947296 383.540558,479.820557
z"/>
    <path fill="#F6F1EE" opacity="1.000000" stroke="none"
          d="
M277.415527,458.335876
	C277.561493,451.425293 278.171753,450.536346 284.497833,450.509064
	C288.205688,450.493042 289.045563,448.939667 288.840393,445.685333
	C288.641815,442.535889 288.884613,439.360809 288.764526,436.203430
	C288.691681,434.287109 289.385742,433.463440 291.308105,433.454865
	C293.146637,433.446686 294.039856,434.112549 294.034332,436.070282
	C293.995880,449.716431 294.015198,463.362732 293.998810,477.009003
	C293.997864,477.814697 294.084930,478.983093 293.137085,479.128845
	C288.698944,479.811157 284.103363,480.412964 279.864868,478.786591
	C276.590546,477.530182 277.500061,474.013824 277.440308,471.274414
	C277.349670,467.115936 277.415649,462.953979 277.415527,458.335876
z"/>
    <path fill="#F7F4F2" opacity="1.000000" stroke="none"
          d="
M430.804504,464.993774
	C430.785126,455.000031 430.831451,445.504211 430.682587,436.011475
	C430.657532,434.414001 430.603363,433.399323 432.514587,433.462158
	C434.153351,433.516052 436.026062,433.156342 436.008392,435.769287
	C435.984741,439.267212 436.153900,442.772217 435.982422,446.261536
	C435.843292,449.093506 436.526337,450.421509 439.761566,450.502350
	C446.781952,450.677673 447.183807,451.305908 447.195099,458.532654
	C447.202911,463.530151 447.091522,468.530334 447.224091,473.524261
	C447.328827,477.470947 445.573425,479.297333 441.666962,479.584229
	C430.801147,480.382263 430.805115,480.436859 430.804565,469.490692
	C430.804504,468.158020 430.804565,466.825378 430.804504,464.993774
z"/>
    <path fill="#F6EEEA" opacity="1.000000" stroke="none"
          d="
M422.723907,453.671204
	C422.942688,455.916931 423.034271,457.743927 423.038300,459.571106
	C423.057007,468.031464 423.049438,468.041962 414.831085,468.898651
	C413.504486,469.036957 412.097839,468.863892 411.981445,470.824249
	C411.857178,472.916931 413.110291,473.342102 414.800842,473.348969
	C416.297852,473.355072 417.805176,473.269501 419.288696,473.417450
	C420.625061,473.550720 422.575531,472.739624 422.903046,474.965424
	C423.209381,477.047058 422.138916,478.587250 420.138123,479.128784
	C416.718811,480.054260 413.129852,480.041016 409.776642,479.252228
	C407.653473,478.752838 406.035065,477.114197 406.267242,474.089691
	C406.648071,469.128265 406.367767,464.116852 406.383789,459.126556
	C406.408142,451.561188 407.178528,450.695129 414.617584,450.823242
	C417.419250,450.871429 420.791962,449.601929 422.723907,453.671204
z"/>
    <path fill="#F7F4F2" opacity="1.000000" stroke="none"
          d="
M305.768433,479.439392
	C302.859100,478.698792 301.920288,476.850586 301.899780,474.494507
	C301.844666,468.169708 301.880127,461.844116 301.874420,455.518860
	C301.871521,452.281830 303.253113,450.486053 306.715393,450.818085
	C307.045105,450.849670 307.380951,450.821381 307.713867,450.814758
	C317.572662,450.619141 321.359467,455.973877 317.873169,465.275055
	C316.678955,468.461121 314.011841,468.985535 310.977295,468.887848
	C309.256195,468.832458 307.065155,468.358215 307.224365,471.373474
	C307.367798,474.090332 309.407898,473.297516 310.913849,473.421356
	C312.071472,473.516602 313.255157,473.336700 314.405457,473.468842
	C315.746094,473.622833 317.845703,472.803345 317.969910,475.038483
	C318.087189,477.149292 316.934021,479.057404 314.658875,479.316101
	C311.863892,479.633911 309.013123,479.461029 305.768433,479.439392
z"/>
    <path fill="#F6F0ED" opacity="1.000000" stroke="none"
          d="
M363.385742,461.246887
	C357.926025,462.848846 352.874115,464.405945 347.749664,465.668701
	C346.713745,465.923981 344.567108,467.547791 344.270294,464.918274
	C344.079803,463.230804 342.998962,460.805481 345.995148,459.976715
	C348.498413,459.284332 350.958374,458.435333 353.543671,457.622284
	C350.586761,454.441650 341.545410,457.555359 344.668610,448.453491
	C350.879364,450.146149 357.104828,451.844910 363.331726,453.538391
	C364.853912,453.952393 366.240967,454.502075 366.006378,456.478943
	C365.794189,458.266541 366.959869,460.746796 363.385742,461.246887
z"/>
    <path fill="#F6F1EE" opacity="1.000000" stroke="none"
          d="
M399.927124,391.914581
	C394.058105,395.280121 388.684601,394.559418 386.123718,390.324249
	C383.692444,386.303558 385.361938,380.210052 389.682617,377.898254
	C393.498901,375.856415 397.203278,376.526276 400.074677,379.578339
	C403.673035,383.403107 403.359100,387.613037 399.927124,391.914581
z"/>
    <path fill="#DD8454" opacity="1.000000" stroke="none"
          d="
M453.134094,440.977234
	C454.297485,440.595428 455.462250,440.493042 456.592255,440.646698
	C458.756439,440.940979 461.987701,439.457184 462.841217,441.950653
	C463.973450,445.258423 463.963470,449.042450 462.650665,452.524078
	C462.522400,452.864197 461.487427,452.862457 460.434814,452.960052
	C460.128174,450.743530 459.087891,449.347870 457.417633,448.012054
	C455.314087,446.329773 452.900208,444.644196 453.134094,440.977234
z"/>
    <path fill="#F7F2EF" opacity="1.000000" stroke="none"
          d="
M336.701233,458.694550
	C334.750275,460.792480 332.497986,459.732941 330.440704,460.013306
	C327.751862,460.379700 327.068146,458.990692 327.084534,456.527374
	C327.100464,454.131165 327.633057,452.895599 330.388031,452.917328
	C334.159332,452.947083 338.042786,452.399933 336.701233,458.694550
z"/>
    <path fill="#DF8D60" opacity="1.000000" stroke="none"
          d="
M264.140808,470.786865
	C263.739349,474.046509 261.641907,473.455963 259.923157,473.264221
	C258.153229,473.066772 258.180084,471.541138 258.169098,470.212036
	C258.140350,466.738251 258.251495,463.260101 258.109802,459.791748
	C258.024323,457.699402 258.678375,456.817230 260.864868,456.803040
	C263.110474,456.788513 264.263885,457.454163 264.192169,459.890259
	C264.089996,463.361176 264.165924,466.837280 264.140808,470.786865
z"/>
    <path fill="#DF8D60" opacity="1.000000" stroke="none"
          d="
M179.187714,457.052124
	C183.107803,456.295593 184.990021,457.314362 184.615265,461.305603
	C184.352600,464.103271 184.510971,466.946442 184.576614,469.767090
	C184.629318,472.032562 184.246994,473.638672 181.376236,473.576355
	C178.797531,473.520355 178.373947,472.093231 178.436020,470.021057
	C178.564117,465.743683 178.655548,461.465179 179.187714,457.052124
z"/>
    <path fill="#DF8D60" opacity="1.000000" stroke="none"
          d="
M282.804932,463.356995
	C282.797424,461.753387 282.908142,460.572388 282.755188,459.426544
	C282.515167,457.628784 282.279877,456.147461 284.979523,456.384766
	C287.079681,456.569366 289.008423,456.412384 288.885162,459.458130
	C288.737213,463.114532 288.769806,466.783722 288.875854,470.442993
	C288.948517,472.949463 287.634888,473.543732 285.466644,473.542786
	C283.134918,473.541809 282.754974,472.181427 282.801788,470.287445
	C282.855286,468.124695 282.808289,465.959503 282.804932,463.356995
z"/>
    <path fill="#DF8D60" opacity="1.000000" stroke="none"
          d="
M435.972412,460.686829
	C435.893616,458.346100 435.183777,456.216095 438.584747,456.365784
	C441.102020,456.476624 442.192596,457.214355 442.062897,459.860291
	C441.892029,463.345123 441.921906,466.848267 442.053253,470.336456
	C442.142334,472.703247 441.231293,473.569519 438.874664,473.582214
	C436.265015,473.596283 435.897827,472.191803 435.956055,470.086578
	C436.038757,467.094757 435.974854,464.098877 435.972412,460.686829
z"/>
    <path fill="#DF8D60" opacity="1.000000" stroke="none"
          d="
M413.130646,457.014008
	C416.236298,456.582733 418.221100,456.952576 417.812744,460.464081
	C417.484467,463.287231 415.328888,463.218842 413.755219,462.660797
	C410.726257,461.586609 411.521484,459.268005 413.130646,457.014008
z"/>
    <path fill="#DF8D60" opacity="1.000000" stroke="none"
          d="
M312.498840,457.391327
	C312.831879,459.414551 313.934570,461.529724 311.853149,462.560699
	C310.836029,463.064575 309.130402,462.903198 308.056091,462.382874
	C306.721436,461.736450 306.961609,460.004456 307.184662,458.776093
	C307.797241,455.402466 310.356171,457.189667 312.498840,457.391327
z"/>
    <path fill="#DF8D60" opacity="1.000000" stroke="none"
          d="
M395.757996,383.971008
	C397.164337,386.742249 396.232513,388.131134 393.643524,388.155609
	C391.983521,388.171326 390.770782,387.013214 391.117981,385.250366
	C391.656281,382.517273 393.439209,382.493500 395.757996,383.971008
z"/>
</svg>